<?xml version="1.0" encoding="iso-8859-1"?>
<!-- Generator: Adobe Illustrator 19.0.0, SVG Export Plug-In . SVG Version: 6.00 Build 0)  -->
<svg version="1.1" id="Layer_1" xmlns="http://www.w3.org/2000/svg" xmlns:xlink="http://www.w3.org/1999/xlink" x="0px" y="0px"
	 viewBox="0 0 512 512" style="enable-background:new 0 0 512 512;" xml:space="preserve">
<g>
	<path style="fill:#ECF0F1;" d="M432.552,105.931v203.034L379.586,256l-52.966,52.966V105.931H0v388.414
		C0,504.09,7.91,512,17.655,512h476.69c9.746,0,17.655-7.91,17.655-17.655V105.931H432.552z"/>
	<g>
		<path style="fill:#35495E;" d="M326.621,0H17.655C7.91,0,0,7.91,0,17.655v88.276h326.621V0z"/>
		<path style="fill:#35495E;" d="M494.345,0h-61.793v105.931H512V17.655C512,7.91,504.09,0,494.345,0"/>
	</g>
	<path style="fill:#C03A2B;" d="M88.276,52.966c0-14.627-11.855-26.483-26.483-26.483S35.31,38.338,35.31,52.966
		s11.855,26.483,26.483,26.483S88.276,67.593,88.276,52.966"/>
	<path style="fill:#F0C419;" d="M176.552,52.966c0-14.627-11.855-26.483-26.483-26.483s-26.483,11.855-26.483,26.483
		s11.855,26.483,26.483,26.483S176.552,67.593,176.552,52.966"/>
	<path style="fill:#13A085;" d="M264.828,52.966c0-14.627-11.855-26.483-26.483-26.483c-14.627,0-26.483,11.855-26.483,26.483
		s11.855,26.483,26.483,26.483C252.972,79.448,264.828,67.593,264.828,52.966"/>
	<path style="fill:#F0C419;" d="M423.724,370.759h-97.103c-4.882,0-8.828-3.946-8.828-8.828c0-4.882,3.946-8.828,8.828-8.828h97.103
		c4.882,0,8.828,3.946,8.828,8.828C432.552,366.813,428.606,370.759,423.724,370.759"/>
	<path style="fill:#C03A2B;" d="M423.724,476.69h-97.103c-4.882,0-8.828-3.946-8.828-8.828c0-4.882,3.946-8.828,8.828-8.828h97.103
		c4.882,0,8.828,3.946,8.828,8.828C432.552,472.744,428.606,476.69,423.724,476.69"/>
	<g>
		<path style="fill:#13A085;" d="M467.862,423.724H353.103c-4.882,0-8.828-3.946-8.828-8.828c0-4.882,3.946-8.828,8.828-8.828
			h114.759c4.882,0,8.828,3.946,8.828,8.828C476.69,419.778,472.744,423.724,467.862,423.724"/>
		<path style="fill:#13A085;" d="M211.862,220.69H70.621c-4.882,0-8.828-3.946-8.828-8.828c0-4.882,3.946-8.828,8.828-8.828h141.241
			c4.882,0,8.828,3.946,8.828,8.828C220.69,216.744,216.744,220.69,211.862,220.69"/>
	</g>
	<g>
		<path style="fill:#4482C3;" d="M256,167.724H97.103c-4.882,0-8.828-3.946-8.828-8.828c0-4.882,3.946-8.828,8.828-8.828H256
			c4.882,0,8.828,3.946,8.828,8.828C264.828,163.778,260.882,167.724,256,167.724"/>
		<path style="fill:#4482C3;" d="M256,450.207V291.31c0-9.746-7.91-17.655-17.655-17.655H79.448c-9.746,0-17.655,7.91-17.655,17.655
			v52.966L35.31,370.759l26.483,26.483v52.966c0,9.746,7.91,17.655,17.655,17.655h158.897C248.09,467.862,256,459.953,256,450.207"
			/>
	</g>
	<g>
		<path style="fill:#FFFFFF;" d="M132.414,432.552c-14.601,0-26.483-11.882-26.483-26.483v-14.018l-15.086-15.183
			c-1.651-1.66-2.578-3.911-2.569-6.25c0.009-2.339,0.945-4.582,2.604-6.232l15.051-14.954v-13.983
			c0-14.601,11.882-26.483,26.483-26.483c4.882,0,8.828,3.946,8.828,8.828c0,4.882-3.946,8.828-8.828,8.828
			c-4.785,0-8.828,4.043-8.828,8.828v17.655c0,2.357-0.936,4.599-2.604,6.259l-11.396,11.326l11.432,11.502
			c1.651,1.651,2.569,3.893,2.569,6.223v17.655c0,4.785,4.043,8.828,8.828,8.828c4.882,0,8.828,3.946,8.828,8.828
			C141.241,428.606,137.295,432.552,132.414,432.552"/>
		<path style="fill:#FFFFFF;" d="M185.379,432.552c-4.882,0-8.828-3.946-8.828-8.828c0-4.882,3.946-8.828,8.828-8.828
			c4.785,0,8.828-4.043,8.828-8.828v-17.655c0-2.348,0.927-4.59,2.586-6.241l11.414-11.414l-11.414-11.414
			c-1.66-1.651-2.586-3.893-2.586-6.241v-17.655c0-4.785-4.043-8.828-8.828-8.828c-4.882,0-8.828-3.946-8.828-8.828
			c0-4.882,3.946-8.828,8.828-8.828c14.601,0,26.483,11.882,26.483,26.483v14.001l15.069,15.069c3.452,3.452,3.452,9.031,0,12.482
			l-15.069,15.069v14.001C211.862,420.67,199.98,432.552,185.379,432.552"/>
	</g>
	<polygon style="fill:#C03A2B;" points="432.552,308.966 379.586,256 326.621,308.966 326.621,0 432.552,0 	"/>
</g>
<g>
</g>
<g>
</g>
<g>
</g>
<g>
</g>
<g>
</g>
<g>
</g>
<g>
</g>
<g>
</g>
<g>
</g>
<g>
</g>
<g>
</g>
<g>
</g>
<g>
</g>
<g>
</g>
<g>
</g>
</svg>
