<?xml version="1.0" encoding="iso-8859-1"?>
<!-- Generator: Adobe Illustrator 19.0.0, SVG Export Plug-In . SVG Version: 6.00 Build 0)  -->
<svg version="1.1" id="Layer_1" xmlns="http://www.w3.org/2000/svg" xmlns:xlink="http://www.w3.org/1999/xlink" x="0px" y="0px"
	 viewBox="0 0 511.989 511.989" style="enable-background:new 0 0 511.989 511.989;" xml:space="preserve">
<path style="fill:#CCD1D9;" d="M349.805,34.806c-20.422-7.007-65.999,80.904-228.426,236.737l152.178,152.168
	c43.936-35.514,164.09-135.637,238.432-226.737C511.988,196.974,370.866,42.033,349.805,34.806z M358.18,86.703
	c0,5.898-4.766,10.672-10.656,10.672s-10.672-4.781-10.672-10.672s4.781-10.664,10.672-10.664S358.18,80.813,358.18,86.703z"/>
<path style="fill:#965353;" d="M66.091,476.93c20.679,6.468,22.976-38.062,22.976-38.062l70.061-70.061l45.358-14.156
	l-83.139-83.076c0,0-94.482,93.717-105.56,104.795C4.702,387.447-31.524,446.445,66.091,476.93z"/>
<g>
	<path style="fill:#E6E9ED;" d="M60.24,414.821c5.89,0,10.664-4.766,10.664-10.656s-4.773-10.671-10.664-10.671
		s-10.672,4.766-10.672,10.655C49.568,410.056,54.349,414.821,60.24,414.821z"/>
	<path style="fill:#E6E9ED;" d="M90.411,384.65c5.891,0,10.664-4.766,10.664-10.672c0-5.891-4.773-10.656-10.664-10.656
		s-10.671,4.766-10.671,10.656C79.74,379.885,84.52,384.65,90.411,384.65z"/>
	<path style="fill:#E6E9ED;" d="M120.582,354.478c5.89,0,10.664-4.781,10.671-10.671c-0.008-5.891-4.781-10.656-10.671-10.656
		c-5.891,0-10.664,4.766-10.664,10.656C109.911,349.697,114.692,354.478,120.582,354.478z"/>
	<path style="fill:#E6E9ED;" d="M244.665,394.822l28.892,28.889c43.936-35.514,164.09-135.637,238.432-226.737
		c0,0-11.203-12.296-27.766-30.124C415.568,246.809,296.274,350.869,244.665,394.822z"/>
</g>
<g>
</g>
<g>
</g>
<g>
</g>
<g>
</g>
<g>
</g>
<g>
</g>
<g>
</g>
<g>
</g>
<g>
</g>
<g>
</g>
<g>
</g>
<g>
</g>
<g>
</g>
<g>
</g>
<g>
</g>
</svg>
