<?xml version="1.0" encoding="iso-8859-1"?>
<!-- Generator: Adobe Illustrator 19.0.0, SVG Export Plug-In . SVG Version: 6.00 Build 0)  -->
<svg version="1.1" id="Layer_1" xmlns="http://www.w3.org/2000/svg" xmlns:xlink="http://www.w3.org/1999/xlink" x="0px" y="0px"
	 viewBox="0 0 512 512" style="enable-background:new 0 0 512 512;" xml:space="preserve">
<circle style="fill:#935635;" cx="256" cy="256" r="256"/>
<path style="fill:#804000;" d="M437.019,437.019c36.25-36.25,59.345-80.67,69.306-127.331L379.547,169.374l-81.024,14.289
	l-117.8,18.322l-53.872,171.744l157.32,136.709C340.006,504.291,394.209,479.83,437.019,437.019z"/>
<path style="fill:#E6F3FF;" d="M331.411,256.114l-16.929,117.615h-41.879v-88.212c-49.304,23.166-96.749,0-96.749,0l-8.02,88.212
	h-40.982L96.687,210.846c-4.803-38.415,25.152-72.347,63.867-72.347h156.593c9.38,0,18.63,2.184,27.02,6.378l11.828,5.913
	c19.804,9.902,34.37,27.991,39.474,49.536c8.439,35.621,29.87,87.542,66.181,75.39v18.711c0,0-47.966,17.375-81.677-36.531
	C379.971,257.895,356.952,273.934,331.411,256.114z"/>
<path style="fill:#CFDBE6;" d="M395.467,200.326c-5.104-21.545-19.668-39.634-39.474-49.536l-11.828-5.913
	c-8.39-4.194-17.641-6.378-27.02-6.378h-91.889v157.303c14.42,0.043,30.773-2.496,47.345-10.283v88.212h41.877l16.93-117.615
	c25.541,17.82,48.561,1.783,48.561,1.783c33.711,53.907,81.677,36.531,81.677,36.531v-18.711
	C425.338,287.868,403.906,235.948,395.467,200.326z"/>
<circle style="fill:#324A5E;" cx="378.19" cy="218.695" r="5.346"/>
<rect x="167.012" y="138.499" style="fill:#31BAFD;" width="117.622" height="117.622"/>
<rect x="225.263" y="138.499" style="fill:#2B9ED8;" width="59.373" height="117.622"/>
<rect x="180.82" y="138.499" style="fill:#FFD15D;" width="88.212" height="88.212"/>
<g>
	<rect x="225.263" y="138.499" style="fill:#F9B54C;" width="43.78" height="88.212"/>
	<path style="fill:#F9B54C;" d="M401.754,221.744c-2.641-7.404-4.696-14.701-6.287-21.418
		c-5.104-21.545-19.668-39.634-39.474-49.536l-10.899-5.449c3.839,14.85,14.076,48.952,27.746,51.965
		C385.464,200.087,396.543,214.114,401.754,221.744z"/>
</g>
<path style="fill:#FFD15D;" d="M355.993,150.79l-8.711-4.356c4.848,16.57,13.967,41.474,25.56,44.029
	c10.071,2.219,19.149,11.592,25.059,19.168c-0.905-3.184-1.724-6.308-2.432-9.304C390.363,178.781,375.799,160.692,355.993,150.79z"
	/>
<path style="fill:#B8C9D9;" d="M352.552,166.484c0,0,7.394-22.223-26.195-32.296s-34.971,8.894-35.345,55.441
	c-0.376,46.545-6.101,58.49-6.101,58.49s43.141,1.514,61.54-23.145L352.552,166.484z"/>
<path style="fill:#D83E20;" d="M255.228,138.499c0,16.239-13.164,29.405-29.405,29.405c-16.239,0-29.405-13.164-29.405-29.405
	H255.228z"/>
<circle style="fill:#FC6F58;" cx="225.832" cy="194.75" r="11.188"/>
<path style="fill:#C1321F;" d="M225.258,138.499v29.375c0.19,0.003,0.374,0.029,0.565,0.029c16.239,0,29.405-13.164,29.405-29.405
	H225.258z"/>
<path style="fill:#F1543F;" d="M225.823,183.553c-0.191,0-0.378,0.019-0.565,0.029V205.9c0.188,0.009,0.374,0.029,0.565,0.029
	c6.178,0,11.188-5.01,11.188-11.188S232.001,183.553,225.823,183.553z"/>
<g>
</g>
<g>
</g>
<g>
</g>
<g>
</g>
<g>
</g>
<g>
</g>
<g>
</g>
<g>
</g>
<g>
</g>
<g>
</g>
<g>
</g>
<g>
</g>
<g>
</g>
<g>
</g>
<g>
</g>
</svg>
