<?xml version="1.0" encoding="iso-8859-1"?>
<!-- Generator: Adobe Illustrator 19.0.0, SVG Export Plug-In . SVG Version: 6.00 Build 0)  -->
<svg version="1.1" id="Layer_1" xmlns="http://www.w3.org/2000/svg" xmlns:xlink="http://www.w3.org/1999/xlink" x="0px" y="0px"
	 viewBox="0 0 512.001 512.001" style="enable-background:new 0 0 512.001 512.001;" xml:space="preserve">
<path style="fill:#FC7576;" d="M361.196,129.407l-24.37-85.424c-12.904-6.012-28.211-10.287-44.505-14.293l-21.583,47.44
	l-22.923-58.036c-16.067-3.528-31.061-6.013-44.505-6.734l-24.371,102.427L361.196,129.407z"/>
<g>
	<path style="fill:#FF9690;" d="M336.825,43.984v58.904h37.983C375.796,71.593,360.284,54.914,336.825,43.984z"/>
	<path style="fill:#FF9690;" d="M263.736,22.818c-5.409-1.336-10.721-2.583-15.922-3.726v67.209l44.505,5.812V29.691
		C283.024,27.405,273.408,25.205,263.736,22.818z"/>
</g>
<path style="fill:#FCB5B5;" d="M203.308,80.49V12.358c-39.919-2.139-66.163,11.314-66.163,59.49c0,3.898,0.028,7.668,0.079,11.329
	c2.281,161.382,53.703,97.696,53.703,325.254c0,55.171,33.768,89.892,79.311,91.33c45.544,1.438,81.794-26.2,87.545-81.001
	c5.993-57.092,13.446-206.125,16.822-309.585c0.069-2.112,0.136-4.212,0.202-6.286L203.308,80.49z"/>
<path style="fill:#000030;" d="M353.149,38.906c-2.732-1.679-5.592-3.23-8.546-4.693c-1.579-1.311-3.497-2.223-5.599-2.603
	c-12.574-5.498-26.759-9.525-41.734-13.247c-1.277-0.569-2.671-0.919-4.134-1.016c-3.851-0.937-7.74-1.863-11.667-2.797
	c-4.898-1.162-9.847-2.338-14.811-3.563c-4.858-1.199-9.719-2.351-14.563-3.433c-1.059-0.398-2.185-0.653-3.361-0.741
	c-15.084-3.271-29.928-5.758-43.833-6.551c-0.522-0.068-1.05-0.116-1.59-0.116c-0.126,0-0.246,0.015-0.37,0.018
	c-21.65-0.989-40.912,2.286-55.074,13.378c-15.199,11.904-22.905,31.52-22.905,58.304c0,84.137,12.139,113.556,24.991,144.705
	c14.154,34.306,28.791,69.781,28.791,191.879c0,29.643,8.884,55.216,25.691,73.951c16.367,18.245,39.601,28.743,65.42,29.558
	c1.27,0.04,2.53,0.06,3.785,0.06c24.687,0,46.521-7.739,63.332-22.492c18.475-16.212,29.864-40.238,32.932-69.477
	c6.058-57.726,13.725-210.391,17.085-316.759C387.896,74.514,376.827,53.459,353.149,38.906z M362.629,102.506
	c-3.346,105.939-10.961,257.788-16.963,314.984c-4.747,45.223-32.755,71.434-75.043,70.093c-41.011-1.295-67.51-32.363-67.51-79.151
	c0-126.928-16.275-166.373-30.635-201.174c-11.905-28.852-23.148-56.105-23.148-135.41c0-19.175,4.437-31.97,13.561-39.118
	c6.904-5.408,16.723-7.861,28.232-8.352v17.296h-9.28c-6.73,0-12.185,5.455-12.185,12.185s5.455,12.185,12.185,12.185h9.28v24.371
	c0,6.729,5.455,12.185,12.185,12.185c6.73,0,12.185-5.457,12.185-12.185V25.661c6.542,0.821,13.3,1.963,20.135,3.314v66.316
	c0,6.729,5.455,12.185,12.185,12.185c6.73,0,12.186-5.457,12.186-12.185V34.453c0.272,0.067,0.546,0.132,0.818,0.2
	c5.035,1.242,10.053,2.433,15.02,3.613c1.452,0.345,2.877,0.686,4.297,1.026v60.875c0,6.729,5.457,12.185,12.185,12.185
	c6.73,0,12.185-5.457,12.185-12.185V45.518c7.365,2.068,14.089,4.205,20.136,6.546v52.975c0,6.729,5.457,12.185,12.185,12.185
	s12.185-5.457,12.185-12.185V66.068C358.416,74.691,363.148,86.085,362.629,102.506z"/>
<g>
</g>
<g>
</g>
<g>
</g>
<g>
</g>
<g>
</g>
<g>
</g>
<g>
</g>
<g>
</g>
<g>
</g>
<g>
</g>
<g>
</g>
<g>
</g>
<g>
</g>
<g>
</g>
<g>
</g>
</svg>
