<?xml version="1.0" encoding="utf-8"?>
<!-- Uploaded to SVGRepo https://www.svgrepo.com -->
<svg version="1.1" id="Layer_1" xmlns="http://www.w3.org/2000/svg" xmlns:xlink="http://www.w3.org/1999/xlink" x="0px" y="0px"
	 width="256px" height="256px" viewBox="0 0 256 256" enable-background="new 0 0 256 256" xml:space="preserve">
<path d="M98.6,32.6c24,0,43.4,19.4,43.4,43.4s-19.4,43.6-43.4,43.6s-43.4-19.4-43.4-43.4S74.6,32.6,98.6,32.6z M221.8,215.6h-54.4
	l25.4-43.8c5.2-9.2,2-20.8-7-26s-20.6-2-25.8,7l-25.4,43.8l-37.8-64.8C93.2,125,86,121.6,77,121.6c-1.2,0-3.8,0.4-5.2,0.8
	c-1.2,0.2-3,0.8-4.4,1.2C31,135.6,2.2,193.8,2.2,254c1,0,87.4,0,109.4,0c-0.8-1.2-1.6-2.2-2.4-3.4L65.4,175c-1.4-2.6-0.4-6,2-7.4
	c2.6-1.4,6-0.4,7.4,2l43.4,75c3.2,5.6,9.2,9.4,16.2,9.4h87.4c10.6,0,19-8.6,19-19C241,224,232.2,215.6,221.8,215.6z
	 M196.524,102.877h28.537v5.678h-28.537V102.877z M215.073,119.999h-8.561c-3.152,0-5.707-2.555-5.707-5.707v-1.427h19.976v1.427
	C220.781,117.444,218.225,119.999,215.073,119.999z M210.07,28.691c-16.363,0.385-29.503,14.087-29.237,30.453
	c0.126,7.737,3.185,14.761,8.113,20.009c4.794,5.106,7.578,11.773,7.578,18.777v0.638h12.128v-24.94h-5.707v-4.28h15.695v4.28
	h-5.707v24.94h12.128v-0.64c0-6.992,2.763-13.659,7.555-18.751c5.047-5.363,8.14-12.586,8.14-20.531
	C240.756,41.857,226.949,28.293,210.07,28.691z M214.891,2H209.3v18.578h5.591V2z M254,21.545l-3.953-3.953L236.91,30.728
	l3.953,3.953L254,21.545z M181.637,34.682l3.953-3.953l-13.137-13.137l-3.953,3.953L181.637,34.682z"/>
</svg>
