<?xml version="1.0" encoding="iso-8859-1"?>
<!-- Generator: Adobe Illustrator 19.0.0, SVG Export Plug-In . SVG Version: 6.00 Build 0)  -->
<svg version="1.1" id="Layer_1" xmlns="http://www.w3.org/2000/svg" xmlns:xlink="http://www.w3.org/1999/xlink" x="0px" y="0px"
	 viewBox="0 0 512.024 512.024" style="enable-background:new 0 0 512.024 512.024;" xml:space="preserve">
<g>
	<polygon style="fill:#415E72;" points="49.058,421.365 1.69,448.716 49.058,476.06 	"/>
	<polygon style="fill:#415E72;" points="464.512,421.365 511.88,448.716 464.512,476.06 	"/>
	<rect x="40.736" y="440.769" style="fill:#415E72;" width="427.651" height="15.943"/>
</g>
<rect y="35.964" style="fill:#E04F5F;" width="512.024" height="349.52"/>
<g>
	<path style="fill:#FFFFFF;" d="M107.116,295.452v-4.695c5.74-0.319,11.089-3.005,14.78-7.414
		c6.704-10.945,12.364-22.496,16.908-34.502l53.179-125.276h5.014l63.606,144.719c2.36,6.457,5.795,12.468,10.156,17.785
		c3.723,2.734,8.147,4.345,12.755,4.648v4.735h-64.858v-4.695c4.895-0.183,9.741-0.988,14.429-2.392
		c2.16-0.949,3.244-3.292,3.237-7.015c-0.175-2.232-0.59-4.432-1.244-6.569c-0.909-3.388-2.081-6.704-3.484-9.925l-10.22-24.553
		h-67.281c-6.64,16.629-10.602,26.801-11.886,30.524c-1.1,2.806-1.754,5.764-1.929,8.769c-0.303,3.779,1.786,7.35,5.229,8.936
		c3.93,1.347,8.035,2.097,12.189,2.232v4.735L107.116,295.452z M217.062,229.885l-29.256-70.303l-29.392,70.311L217.062,229.885z"/>
	<path style="fill:#FFFFFF;" d="M315.146,240.487c14.588-8.163,29.902-14.971,45.742-20.32v-10.594
		c0.399-6.011-0.446-12.037-2.487-17.705c-3.683-6.027-10.578-9.311-17.578-8.354c-4.249,0-8.418,1.124-12.093,3.244
		c-3.508,1.73-5.732,5.301-5.74,9.215c0.08,1.698,0.287,3.388,0.622,5.054c0.303,1.499,0.518,3.013,0.622,4.544
		c0.399,3.85-1.379,7.597-4.608,9.726c-1.889,1.108-4.05,1.658-6.234,1.594c-3.284,0.199-6.465-1.164-8.594-3.675
		c-1.937-2.28-2.997-5.174-2.997-8.163c0.837-7.334,4.759-13.966,10.786-18.231c9-6.959,20.248-10.363,31.6-9.566
		c16.127,0,27.056,5.237,32.788,15.704c3.5,7.868,5.078,16.462,4.608,25.063v49.983c-0.175,3.364,0.167,6.736,0.996,9.997
		c0.781,3.029,3.611,5.07,6.736,4.863c1.626,0.056,3.236-0.239,4.735-0.869c2.272-1.236,4.44-2.655,6.481-4.241v6.481
		c-2.471,3.061-5.365,5.74-8.601,7.972c-4.145,2.989-9.096,4.64-14.206,4.735c-4.767,0.407-9.407-1.658-12.284-5.477
		c-2.607-3.882-4.05-8.426-4.169-13.098c-5.038,4.536-10.459,8.625-16.207,12.221c-6.449,4.145-13.903,6.473-21.564,6.728
		c-6.951,0.08-13.64-2.639-18.566-7.541c-5.214-4.974-8.075-11.926-7.852-19.132C297.353,258.105,304.217,246.641,315.146,240.487z
		 M360.888,226.393c-8.267,2.583-16.214,6.09-23.684,10.467c-11.966,7.406-17.944,15.8-17.952,25.183
		c-0.502,6.473,2.312,12.763,7.477,16.701c3.149,2.296,6.943,3.524,10.842,3.492c5.588-0.032,11.049-1.626,15.768-4.616
		c4.48-2.216,7.382-6.72,7.541-11.718L360.888,226.393z"/>
</g>
<g>
</g>
<g>
</g>
<g>
</g>
<g>
</g>
<g>
</g>
<g>
</g>
<g>
</g>
<g>
</g>
<g>
</g>
<g>
</g>
<g>
</g>
<g>
</g>
<g>
</g>
<g>
</g>
<g>
</g>
</svg>
