<?xml version="1.0" encoding="iso-8859-1"?>
<!-- Generator: Adobe Illustrator 16.0.0, SVG Export Plug-In . SVG Version: 6.00 Build 0)  -->
<!DOCTYPE svg PUBLIC "-//W3C//DTD SVG 1.1//EN" "http://www.w3.org/Graphics/SVG/1.1/DTD/svg11.dtd">
<svg version="1.1" id="Capa_1" xmlns="http://www.w3.org/2000/svg" xmlns:xlink="http://www.w3.org/1999/xlink" x="0px" y="0px"
	 width="32px" height="32px" viewBox="0 0 32 32" style="enable-background:new 0 0 32 32;" xml:space="preserve">
<g>
	<g>
		<path d="M31.443,15.046c-0.288-0.46-0.66-0.865-1.075-1.217c-0.836-0.704-1.82-1.224-2.847-1.644
			c-1.028-0.422-2.115-0.715-3.208-0.945c-0.834-0.17-1.674-0.286-2.513-0.368c-1.191-2.787-3.08-5.273-5.283-5.273
			c-2.331,0-4.315,2.784-5.49,5.763c-0.378,0.089-0.738,0.185-1.066,0.291c-0.642,0.21-1.191,0.419-1.633,0.611
			c-0.444,0.189-0.787,0.349-1.018,0.461c-0.232,0.111-0.356,0.17-0.356,0.17s0.527-0.15,1.449-0.416
			c0.462-0.125,1.021-0.273,1.668-0.408c0.233-0.046,0.486-0.089,0.744-0.129c-0.119,0.334-0.229,0.667-0.326,0.999
			c-0.302,0.045-0.599,0.079-0.907,0.141c-0.558,0.117-1.125,0.256-1.685,0.451c-0.56,0.193-1.115,0.427-1.638,0.761
			c-0.131,0.087-0.257,0.165-0.392,0.279c-0.063,0.052-0.14,0.109-0.19,0.157L5.53,14.871l-0.037,0.035l-0.038,0.038l-0.02,0.022
			l-0.077,0.086c-0.05,0.059-0.104,0.113-0.149,0.176c-0.094,0.124-0.185,0.247-0.263,0.38c-0.33,0.52-0.501,1.136-0.497,1.706
			c0,0.286,0.045,0.559,0.115,0.811c0.067,0.254,0.165,0.484,0.281,0.689c0.229,0.413,0.507,0.741,0.795,0.977
			c0.245,0.209,0.492,0.353,0.716,0.444c-0.506-0.065-0.983-0.139-1.415-0.237c-0.361-0.072-0.691-0.16-0.993-0.258
			c-0.192-0.221-0.443-0.547-0.65-0.967c-0.204-0.425-0.359-0.938-0.381-1.501c-0.012-0.28,0.005-0.573,0.051-0.87
			c0.011-0.074,0.023-0.147,0.038-0.223l0.021-0.097l0.031-0.123l0.03-0.123l0.031-0.102c0.021-0.066,0.038-0.132,0.068-0.203
			c0.105-0.279,0.24-0.548,0.404-0.798c0.162-0.25,0.351-0.484,0.553-0.697c0.403-0.426,0.854-0.777,1.265-1.051
			c0.207-0.133,0.398-0.261,0.576-0.36c0.178-0.099,0.333-0.192,0.465-0.26c0.263-0.139,0.42-0.213,0.42-0.213s-0.175,0-0.476,0.046
			c-0.149,0.027-0.333,0.055-0.538,0.111s-0.439,0.119-0.684,0.218c-0.245,0.097-0.511,0.21-0.779,0.362
			c-0.268,0.15-0.542,0.333-0.806,0.552c-0.262,0.22-0.515,0.476-0.737,0.771c-0.221,0.295-0.412,0.626-0.55,0.979
			c-0.037,0.085-0.067,0.182-0.098,0.278l-0.044,0.14l-0.03,0.123l-0.029,0.123l-0.017,0.082l-0.013,0.068
			c-0.017,0.09-0.03,0.181-0.042,0.271c-0.042,0.364-0.042,0.733,0.01,1.084c0.1,0.706,0.409,1.321,0.771,1.739
			c0.091,0.108,0.183,0.205,0.275,0.291c-0.479-0.243-0.797-0.535-0.985-0.761c-0.091-0.116-0.158-0.211-0.196-0.277
			c-0.041-0.066-0.062-0.102-0.062-0.102s0.011,0.039,0.033,0.113c0.02,0.077,0.063,0.187,0.129,0.326
			c0.133,0.278,0.408,0.665,0.875,1.028c0.464,0.366,1.105,0.692,1.86,0.978c0.761,0.27,1.633,0.518,2.59,0.705
			c0.959,0.196,1.986,0.375,3.085,0.535c1.136,0.145,2.307,0.221,3.526,0.253c1.218,0.031,2.475,0.024,3.753-0.032
			c1.277-0.05,2.575-0.164,3.871-0.328c1.293-0.174,2.591-0.385,3.849-0.744c0.629-0.178,1.25-0.385,1.854-0.645
			c0.602-0.26,1.189-0.566,1.728-0.984c0.268-0.209,0.518-0.451,0.735-0.73c0.099-0.119,0.238-0.34,0.291-0.443
			c0.093-0.162,0.165-0.341,0.216-0.527c0.107-0.374,0.098-0.787-0.004-1.143c-0.103-0.356-0.277-0.659-0.474-0.916
			c-0.396-0.512-0.866-0.863-1.331-1.159c-0.468-0.293-0.938-0.523-1.395-0.719c-0.916-0.392-1.794-0.618-2.573-0.779
			c-0.743-0.153-1.397-0.209-1.951-0.23c-0.094-0.312-0.197-0.625-0.312-0.938c0.646,0.073,1.292,0.158,1.933,0.287
			c1.054,0.206,2.086,0.496,3.066,0.86c0.976,0.37,1.9,0.834,2.653,1.438c0.754,0.593,1.329,1.354,1.443,2.18
			c0.126,0.827-0.167,1.639-0.63,2.257c-0.463,0.625-1.033,1.105-1.564,1.485c-0.537,0.377-1.038,0.667-1.462,0.886
			c-0.424,0.218-0.765,0.377-1.001,0.477c-0.234,0.103-0.363,0.15-0.363,0.15s0.135-0.029,0.382-0.102s0.61-0.182,1.06-0.358
			c0.448-0.178,0.991-0.41,1.577-0.755c0.582-0.348,1.232-0.788,1.793-1.454c0.279-0.332,0.533-0.724,0.704-1.179
			c0.174-0.454,0.253-0.967,0.196-1.494C31.93,16.023,31.731,15.504,31.443,15.046z M7.488,20.372
			c-0.123-0.015-0.241-0.028-0.362-0.043c-0.021-0.006-0.041-0.012-0.064-0.021c-0.121-0.041-0.292-0.125-0.478-0.267
			C6.399,19.897,6.195,19.7,6.009,19.44c-0.183-0.26-0.362-0.572-0.475-0.931c-0.112-0.358-0.165-0.754-0.118-1.15
			c0.054-0.395,0.204-0.784,0.464-1.14c0.062-0.09,0.136-0.175,0.21-0.261c0.035-0.044,0.079-0.083,0.118-0.126l0.06-0.063
			l0.007-0.007l0.007-0.006l0.038-0.034l0.151-0.134c0.05-0.043,0.088-0.063,0.132-0.097c0.076-0.06,0.187-0.126,0.287-0.192
			c0.415-0.258,0.903-0.462,1.402-0.646c0.503-0.177,1.022-0.333,1.543-0.465c0.117-0.03,0.231-0.051,0.348-0.079
			c-0.06,0.272-0.109,0.537-0.15,0.795c-0.867,0.235-1.703,0.571-2.379,1.11c-0.344,0.272-0.646,0.595-0.862,0.966
			c-0.219,0.368-0.343,0.793-0.333,1.203c0.01,0.411,0.151,0.789,0.351,1.083c0.199,0.298,0.45,0.52,0.699,0.691
			c0.48,0.314,0.952,0.455,1.345,0.541C8.381,20.46,7.923,20.419,7.488,20.372z M10.108,20.618c0.068,0,0.106-0.002,0.106-0.002
			s-0.116-0.015-0.331-0.055c-0.214-0.04-0.528-0.102-0.908-0.234c-0.376-0.129-0.829-0.328-1.234-0.674
			c-0.201-0.174-0.39-0.384-0.52-0.633c-0.13-0.249-0.199-0.535-0.175-0.824c0.036-0.587,0.463-1.158,1.068-1.553
			c0.511-0.339,1.134-0.582,1.803-0.747c-0.014,0.198-0.026,0.394-0.026,0.575c0,1.62,0.594,3.097,1.564,4.248
			c-0.298-0.018-0.606-0.028-0.892-0.057C10.41,20.647,10.259,20.634,10.108,20.618z M17.625,20.729
			c-1.246,0.058-2.476,0.083-3.664,0.075c-0.301-0.003-0.591-0.012-0.887-0.018c-1.271-1.016-2.096-2.564-2.096-4.313
			c0-3.14,2.621-9.787,5.54-9.787c2.919,0,5.54,6.647,5.54,9.787c0,1.608-0.693,3.056-1.792,4.065
			C19.382,20.618,18.5,20.683,17.625,20.729z M25.065,19.784c-1.033,0.25-2.109,0.436-3.196,0.578
			c0.799-1.094,1.275-2.436,1.275-3.89c0-0.242-0.016-0.502-0.04-0.773c0.112,0.024,0.227,0.048,0.337,0.074
			c0.76,0.185,1.47,0.388,2.079,0.656c0.602,0.271,1.127,0.601,1.364,1.022c0.117,0.209,0.154,0.434,0.134,0.648
			c-0.023,0.216-0.1,0.418-0.189,0.59c-0.174,0.326-0.366,0.565-0.508,0.729C25.916,19.558,25.495,19.679,25.065,19.784z
			 M24.33,13.541c0.733,0.229,1.54,0.556,2.366,0.984c0.412,0.217,0.826,0.467,1.216,0.761c0.385,0.293,0.755,0.633,1.015,1.013
			c0.128,0.19,0.221,0.389,0.262,0.581c0.038,0.191,0.029,0.374-0.035,0.554c-0.03,0.09-0.074,0.183-0.133,0.271l-0.059,0.093
			c-0.019,0.026-0.031,0.041-0.048,0.062l-0.044,0.059l-0.059,0.067c-0.155,0.179-0.349,0.343-0.56,0.499
			c-0.424,0.311-0.936,0.561-1.477,0.772c-0.082,0.032-0.167,0.062-0.25,0.092c0.148-0.128,0.326-0.294,0.503-0.531
			c0.126-0.171,0.251-0.383,0.325-0.649c0.075-0.266,0.064-0.596-0.061-0.903c-0.257-0.622-0.836-1.077-1.467-1.436
			c-0.639-0.363-1.366-0.66-2.15-0.903c-0.193-0.061-0.396-0.122-0.597-0.178c-0.038-0.009-0.076-0.019-0.114-0.028
			c-0.09-0.514-0.212-1.052-0.368-1.604C23.104,13.202,23.681,13.341,24.33,13.541z"/>
		<path d="M1.528,21.048c0.692,0.6,1.521,1.061,2.396,1.439c0.878,0.381,1.811,0.666,2.763,0.909
			c0.953,0.249,1.938,0.429,2.926,0.56c0.988,0.125,1.981,0.209,2.958,0.236c0.978,0.03,1.938,0.01,2.864-0.044
			c1.853-0.104,3.564-0.36,5.011-0.657c1.446-0.297,2.628-0.638,3.445-0.903c0.408-0.13,0.725-0.251,0.939-0.33
			c0.215-0.082,0.328-0.13,0.328-0.13s-0.485,0.074-1.332,0.182c-0.846,0.104-2.053,0.248-3.5,0.359
			c-1.446,0.113-3.131,0.209-4.931,0.207c-0.899,0-1.826-0.024-2.766-0.075c-0.938-0.06-1.889-0.14-2.831-0.269
			c-0.944-0.117-1.88-0.283-2.79-0.488c-0.229-0.047-0.453-0.104-0.677-0.162l-0.334-0.083l-0.16-0.04l-0.17-0.047
			c-0.233-0.063-0.436-0.127-0.647-0.193C4.809,21.45,4.6,21.382,4.395,21.308c-0.816-0.3-1.577-0.652-2.194-1.102
			c-0.621-0.441-1.085-0.983-1.31-1.576c-0.229-0.592-0.224-1.221-0.107-1.766c0.121-0.546,0.316-1.017,0.509-1.389
			c0.194-0.371,0.371-0.656,0.502-0.842c0.127-0.189,0.204-0.285,0.204-0.285S1.9,14.422,1.731,14.58
			c-0.166,0.16-0.413,0.396-0.679,0.743c-0.266,0.345-0.571,0.793-0.793,1.385c-0.223,0.584-0.365,1.349-0.16,2.164
			C0.294,19.686,0.836,20.456,1.528,21.048z"/>
		<path d="M28.133,22.188c-0.55,0.256-1.182,0.516-1.873,0.789c-0.69,0.271-1.454,0.525-2.265,0.779
			c-0.811,0.252-1.676,0.476-2.578,0.672c-0.9,0.197-1.84,0.365-2.798,0.492c-0.956,0.131-1.944,0.214-2.912,0.255
			c-0.993,0.039-1.968,0.043-2.938,0.006c-0.966-0.036-1.914-0.113-2.827-0.226c-0.912-0.113-1.788-0.267-2.612-0.445
			c-0.823-0.182-1.59-0.405-2.29-0.633c-0.699-0.234-1.328-0.488-1.877-0.735c-0.546-0.253-1.011-0.5-1.387-0.719
			c-0.75-0.44-1.135-0.771-1.135-0.771s0.303,0.41,0.988,0.979c0.341,0.285,0.774,0.609,1.302,0.939
			c0.523,0.334,1.144,0.666,1.842,0.981c0.696,0.321,1.479,0.608,2.319,0.862c0.841,0.257,1.746,0.467,2.69,0.625
			c0.945,0.16,1.93,0.266,2.933,0.324c0.999,0.047,2.028,0.051,3.035,0c1.033-0.047,2.04-0.16,3.034-0.318
			c0.991-0.161,1.958-0.371,2.879-0.623s1.795-0.549,2.611-0.858c0.816-0.308,1.565-0.657,2.249-0.991
			c0.683-0.334,1.285-0.687,1.812-1.006c0.527-0.318,0.968-0.627,1.325-0.884c0.715-0.521,1.079-0.869,1.079-0.869
			s-0.423,0.272-1.196,0.679C29.16,21.702,28.682,21.932,28.133,22.188z"/>
	</g>
</g>
<g>
</g>
<g>
</g>
<g>
</g>
<g>
</g>
<g>
</g>
<g>
</g>
<g>
</g>
<g>
</g>
<g>
</g>
<g>
</g>
<g>
</g>
<g>
</g>
<g>
</g>
<g>
</g>
<g>
</g>
</svg>
