<svg id="Layer_2" data-name="Layer 2" xmlns="http://www.w3.org/2000/svg" xmlns:xlink="http://www.w3.org/1999/xlink" viewBox="0 0 400 300"><defs><linearGradient id="linear-gradient" x1="142.06" y1="241.85" x2="177.55" y2="187.94" gradientUnits="userSpaceOnUse"><stop offset="0" stop-color="#007f68"/><stop offset="1" stop-color="#003128"/></linearGradient><linearGradient id="linear-gradient-2" x1="43.07" y1="185.44" x2="62.84" y2="170.16" xlink:href="#linear-gradient"/><linearGradient id="linear-gradient-3" x1="229.26" y1="185" x2="242.58" y2="172.47" gradientUnits="userSpaceOnUse"><stop offset="0" stop-opacity="0"/><stop offset="0.99" stop-color="#552800"/></linearGradient><linearGradient id="linear-gradient-4" x1="143.52" y1="134.52" x2="152.07" y2="126.48" xlink:href="#linear-gradient-3"/></defs><title>PP</title><path d="M196.24,288.6,23.74,186.65c-5.49-3.08-10.2-8.15-4.85-11.46L192,75.41c2.6-1.61,6.54-2.66,9.18-1.13L382.28,179.37c5.49,3.19,6.48,12.1,1,15.29L219,288.44A22.94,22.94,0,0,1,196.24,288.6Z" fill="#007f68"/><polyline points="237.6 251.07 184.31 281.55 61.94 209.22 131.94 169.31" fill="url(#linear-gradient)"/><path d="M235.76,77.29l-.21,7.44s6.37,2.87,9.59,2v-12" fill="#e5b79e"/><path d="M231.69,63.36s-.22,12-.89,14.26,6.51,1.15,6.79-2.24" fill="#f7931e"/><path d="M232,65.6c-.12.38,0,12.5,3.71,13.66,5.84,1.83,9.37-3,11.14-6.79s.65-14.67-5.7-15.36S233.13,62.14,232,65.6Z" fill="#ffd9c0"/><path d="M232,65.6s-2.62-1.05-2.45-4.71A9.52,9.52,0,0,1,239,52.12C245.13,52,254.89,56,252.1,65.7c-3,10.32-7.72,10.71-7.72,10.71s2.28-5.57,1.69-8.28-1.28-5.44-1.28-5.19.17,3.66.17,3.66-4.4.26-4.58,0S239,62.51,239,62.51v4.09Z" fill="#f7931e"/><path d="M245.57,69.45s.91-5.13,2.58-4.07,1.28,5.18-2.05,6.34" fill="#ffd9c0"/><path d="M252.5,61.17s1.25,15.69-.45,18.4-7.12,3.95-10.48,3.12,4-9.74,3.36-13.72-1.58-7.81-1.58-7.81" fill="#f7931e"/><path d="M230.73,80.07a6.54,6.54,0,0,0-6.45,0c-3.72,1.86-4.15,17.87-4.3,22.12s-.14,14-1,19.14-5.59,18.19-4.3,19.34,5.44,4.58,7,2.87,9-52.1,9-52.1" fill="#ffe8d9"/><path d="M246.69,85.35l-4.46-1.13a1.11,1.11,0,0,1-.78.9c-2,.65-5-.19-5.88-2.24a1.23,1.23,0,0,1-.08-.38l-3.36-.85c.18.48-5.49,1.9-5.17,7.09s-.06,10.69,3.78,11.43a39.22,39.22,0,0,0,7.54.63l6.77-5,2.57-6.45Z" fill="#ffe8d9"/><path d="M249,116.91c1.34-8.75,10.09-20.58,7.31-25.94-1.73-3.34-6.1-5.79-9.89-7.61a1.15,1.15,0,0,1,0,.12c-.13.29-.29.57-.43.85a1.16,1.16,0,0,1,.71,1A9.59,9.59,0,0,1,245,90.77a31.09,31.09,0,0,1-3.26,5.09c-2.06,2.36-5.6,3.86-8.64,2.51C228,96.1,228.8,87.95,231,83.93a1.1,1.1,0,0,1,1.78-.22l.34-.48c.08-.12.14-.24.22-.35s.07-.07.11-.11h0l0,0a1.2,1.2,0,0,1,.29-.24s.07-.07.1-.09a1,1,0,0,1,0-.42,7.68,7.68,0,0,1,1.84-2.73h0s-8.23-1-9,0-2.71,9.8-3.7,12.91c-2.53,7.92-4.88,7.2-.06,19.47,3.63,9.25-2.2,22.78-2.41,28.75a142.57,142.57,0,0,1-1.85,15.33S251.9,172.59,253.86,173s1.24-24.29,0-29.85S247.68,125.66,249,116.91Z" fill="#603813"/><path d="M235.74,79.24s-5.68,4-4.95,5.76,2.44,4.94,2.44,4.94l4.36-4.12s1,6.17,2,6.18c4,0,7.39-7.11,7.59-7.72S244.29,81,244.29,81s-3,4-6.08,3.32S235.74,79.24,235.74,79.24Z" fill="#f78b72"/><path d="M236.26,89.8a1.18,1.18,0,0,0,0,2.36A1.18,1.18,0,0,0,236.26,89.8Z" fill="#7896b5"/><path d="M235.13,94a1.18,1.18,0,0,0,0,2.36A1.18,1.18,0,0,0,235.13,94Z" fill="#7896b5"/><path d="M255.3,88c.45,0,4.15,2.14,4.44,6.8s-4,13.11-8,19-12.18,17.33-14.33,21.78-7.16,10.89-7.16,10.89-5.94-.42-7.16-4.87c-.76-2.76,8.89-14.18,11.9-18.91S248.85,88.57,255.3,88Z" fill="#ffe8d9"/><path d="M77,174c.18-.62.36-1.23.52-1.85-6.34-2.81-14.14-3.8-19-8.46L24.77,182.5c5.36,5,11.58,9.15,17.18,13.88l34.29-19.49q.16-.71.35-1.42a.67.67,0,0,1,0-.73Z" fill="url(#linear-gradient-2)"/><path d="M74.55,151.57c-.72-1.55-3.92-2.72-7.75-2.72s-7.18,1.23-7.79,2.84c-4.51,6.31-8.94,16.58-3.4,23.46a14.12,14.12,0,0,0,10.88,4.92h.67A14.12,14.12,0,0,0,78,175.15C83.61,168.22,79.09,157.87,74.55,151.57Z" fill="#1779ba"/><ellipse cx="66.8" cy="152.24" rx="7.9" ry="3.39" opacity="0.5"/><path d="M76,123.48a65.38,65.38,0,0,0-8.77,27.08,189.11,189.11,0,0,0-3.17-34.48c-.08-.4-.69-.23-.62.17a188.21,188.21,0,0,1,3.11,38.57.3.3,0,0,0,.41.29c0,.09,0,.19,0,.28a.32.32,0,0,0,.64,0,64.71,64.71,0,0,1,9-31.6A.32.32,0,0,0,76,123.48Z" fill="#fe6162"/><path d="M71,134s4.89-15.73,15.39-21.54c0,0-2.13,3.12-1.13,5.67s2.55,7.09-2.41,9.65-7.8,0-7.38,5,2.39,7.38-.79,9.79-5.9,4.51-7,9.7C67.76,152.24,69,139.23,71,134Z" fill="#fe6162"/><path d="M66.37,132.35s-2-24.16-6.28-30.27a11.23,11.23,0,0,1-1.19,6.8c-1.84,3.49-3.82,4.71-2.76,9.26s5.38,3.64,5,8.2-4,3.7-2.21,9.44,7.93,9.53,7.93,9.53" fill="#fe6162"/><path d="M111.8,131.64V179a9.22,9.22,0,0,0,4.48,7.91l107,64.12a14,14,0,0,0,14.34.06L279,226.71a11.54,11.54,0,0,0,5.67-9.44l1.74-40" fill="#1779ba"/><polyline points="286.38 168.42 286.38 177.27 283.4 177.27 282.36 172.4" fill="#a85c5c"/><polygon points="111.8 140.35 111.8 131.64 115.46 136.46 111.8 140.35" fill="#a85c5c"/><path d="M115.35,133.68l46.45-26.82a10.83,10.83,0,0,1,10.83,0l110.16,63.6a7.24,7.24,0,0,1,0,12.54l-46.53,26.87a10.36,10.36,0,0,1-10.36,0L115.35,146A7.14,7.14,0,0,1,115.35,133.68Z" fill="#a85c5c"/><path d="M114.82,125.78,161.27,99a10.83,10.83,0,0,1,10.83,0l110.16,63.6a7.24,7.24,0,0,1,0,12.54L235.73,202a10.36,10.36,0,0,1-10.36,0L114.82,138.14A7.14,7.14,0,0,1,114.82,125.78Z" fill="#c96f6f"/><path d="M175.37,142.36c.71.18,21.84,13,21.84,13l30.9-17.54-21.19-12.62Z" fill="#fff"/><path d="M173,156.62c.71.18,21.84,13,21.84,13l30.9-17.54-21.19-12.62Z" fill="#1779ba"/><path d="M226.6,187.78c1.89.58,3.79,1.15,5.74,1.54a29.37,29.37,0,0,0,3.59.41l2-1.37,14-10.39-10.69-3.55L216,183.23C219.08,185.52,222.94,186.66,226.6,187.78Z" opacity="0.32" fill="url(#linear-gradient-3)"/><path d="M246.33,166.67a11.86,11.86,0,0,1-7-2.71v7.47a7.76,7.76,0,0,0,7.76,7.76h0a7.76,7.76,0,0,0,7.76-7.76v-7.6C252.16,164.92,249.16,166.92,246.33,166.67Z" fill="#1779ba"/><ellipse cx="247.05" cy="163.92" rx="7.76" ry="4.11" fill="#5ed18d"/><path d="M247.05,164.62s-5.27-.78-6.67-9.31C240.38,155.31,244.88,157.79,247.05,164.62Z" fill="#5ed18d"/><path d="M247.83,163.53s-6-10.86,0-18.15A30.42,30.42,0,0,1,247.83,163.53Z" fill="#5ed18d"/><path d="M247.05,156.7s-5.27-.78-6.67-9.31C240.38,147.4,244.88,149.88,247.05,156.7Z" fill="#5ed18d"/><path d="M247.69,160.18s-1.32-5.16,6-9.75C253.7,150.43,253.15,155.54,247.69,160.18Z" fill="#5ed18d"/><ellipse cx="247.05" cy="163.92" rx="7.76" ry="4.11" fill="#146666"/><path d="M247.05,164.62s-5.27-.78-6.67-9.31C240.38,155.31,244.88,157.79,247.05,164.62Z" fill="#5ed18d"/><path d="M247.83,163.53s-6-10.86,0-18.15A30.42,30.42,0,0,1,247.83,163.53Z" fill="#5ed18d"/><path d="M247.05,156.7s-5.27-.78-6.67-9.31C240.38,147.4,244.88,149.88,247.05,156.7Z" fill="#5ed18d"/><path d="M247.69,160.18s-1.32-5.16,6-9.75C253.7,150.43,253.15,155.54,247.69,160.18Z" fill="#5ed18d"/><path d="M141.81,136.31c1.22.37,2.44.74,3.68,1,.76.15-2.37.21-1.6.27l1.19-.84,13-6.71-9.78-4.12L135,133.39A22.46,22.46,0,0,0,141.81,136.31Z" opacity="0.32" fill="url(#linear-gradient-4)"/><path d="M145.11,115v13.83s13.3.74,13.3,0V115" fill="#1779ba"/><ellipse cx="151.76" cy="128.69" rx="6.65" ry="3.04" fill="#1779ba"/><ellipse cx="151.76" cy="114.97" rx="6.65" ry="3.04" fill="#3129a3"/><path d="M147.61,117.34l0,0c.25.09.51.17.78.24l-1.81-15.15a.91.91,0,0,0-.93.17l1.86,14.69Z" fill="#f78b72"/><path d="M149.68,117.8l.56-14.22a.91.91,0,0,0-.94,0l-.46,14.08A7.45,7.45,0,0,0,149.68,117.8Z" fill="#f78b72"/><path d="M151.76,118l1.83-14.82,3.7,2-1.5,12.45A11.31,11.31,0,0,1,151.76,118Z" fill="#fcb749"/><polygon points="234.38 102.12 241.25 105.99 240.83 108.71 234.38 104.89 234.38 102.12" fill="#f7931e"/><path d="M364.8,69.06l-1.13,62a3.9,3.9,0,0,1-5.64,3.42l-52.68-26.24a5.16,5.16,0,0,1-2.86-4.71l1.13-62a4.22,4.22,0,0,1,6.13-3.68L362,64.37A5.16,5.16,0,0,1,364.8,69.06Z" fill="#1779ba"/><path d="M314.53,62.58s-6.83,18.6,2.19,28S340.5,105.5,340.5,105.5,344.91,69.7,314.53,62.58Z" fill="#fff"/><path d="M346.55,93.44s-8.12-9.3,0-18.21A21.47,21.47,0,0,1,346.55,93.44Z" fill="#fff"/><path d="M343.08,109.64s.16-12.35,12.16-13.56A21.47,21.47,0,0,1,343.08,109.64Z" fill="#fff"/><path d="M341.1,106.55c-1.48-1.94-2.91-3.92-4.33-5.91a37.15,37.15,0,0,1,.23-4.46,38.87,38.87,0,0,0-.14-4.65c-.07-.83-1.37-.84-1.3,0a38.28,38.28,0,0,1,.14,4.65c0,.88-.15,1.76-.21,2.63q-3.29-4.74-6.33-9.65a60.19,60.19,0,0,0-.73-10.88c-.13-.83-1.39-.48-1.26.35a57.81,57.81,0,0,1,.69,8.4q-5-8.38-9.35-17.2c-.37-.75-1.49-.09-1.12.66q2.38,4.9,5,9.67l-7.53-2.27a.65.65,0,0,0-.35,1.26l8.6,2.59a.62.62,0,0,0,.18,0q4,7.23,8.65,14.12c-2.36-.8-4.69-1.67-7-2.69-.76-.34-1.42.78-.66,1.12a84.71,84.71,0,0,0,8.82,3.35h0c2.19,3.23,4.45,6.43,6.82,9.55C340.48,107.86,341.61,107.21,341.1,106.55Z" fill="#1779ba"/></svg>