<?xml version="1.0" encoding="iso-8859-1"?>
<!-- Generator: Adobe Illustrator 19.0.0, SVG Export Plug-In . SVG Version: 6.00 Build 0)  -->
<svg version="1.1" id="Layer_1" xmlns="http://www.w3.org/2000/svg" xmlns:xlink="http://www.w3.org/1999/xlink" x="0px" y="0px"
	 viewBox="0 0 508 508" style="enable-background:new 0 0 508 508;" xml:space="preserve">
<path style="fill:#E0F2F1;" d="M323.093,338l163.6,163.2c3.2-3.2,10.4-11.6,11.2-24.4c0.8-12.8-6-26-19.2-39.6l-72.4-72.4l-14,14
	c-1.6,0.4-0.8,0.4-1.6,0.4l0,0c-0.4,0-1.6-0.4-2-0.4l-67.2-66.8v25.6C322.293,338,323.093,338,323.093,338z"/>
<path style="fill:#FFCDD2;" d="M13.893,58.8L13.893,58.8L13.893,58.8z"/>
<path style="fill:#78909C;" d="M322.293,349.6v-40c0-1.2-2.4-2-1.6-2h0.4v-34.4L64.693,16.8c-0.4-0.8-0.8-1.2-1.6-1.6
	c-5.6-5.6-13.2-8.8-21.2-8.8s-15.6,3.2-21.2,8.8c-12.4,12.4-14.4,32-3.2,43.2c0.4,0.4,2,0.8,1.6,1.6l300.4,298.4l-0.4-6.8
	C319.093,350.8,322.293,350,322.293,349.6z"/>
<path d="M487.093,508c-1.2,0-2-0.4-2.8-1.2l-158.8-158l-0.8,14c0,1.6-1.2,2.8-2.4,3.6c-1.6,0.4-3.2,0.4-4.4-0.8l-306-304
	c0,0,0,0,0-0.4c-14.4-14.4-8.8-37.2,4.8-50.8c6.8-6.8,16-10.4,25.6-10.4s18.8,3.6,25.6,10.4c0.8,0.8,1.2,1.2,1.6,2l256.8,256.8
	c0.8,0.8,1.2,1.6,1.2,2.8v36l64,64l12.4-12.4c0.8-0.8,1.6-1.2,2.8-1.2s2,0.4,2.8,1.2l74,74l0,0c24.4,24.4,23.2,44.8,18,57.6
	C498.293,498.4,490.693,508,487.093,508z M321.893,335.6c1.2,0,2,0.4,2.8,1.2l162.4,161.6c3.2-3.6,8.8-11.2,9.2-21.6
	c0.4-12.4-5.6-24.8-18.8-38l-71.2-71.2l-12.4,12.4c-0.8,0.8-1.6,1.2-2.8,1.2l0,0c-1.2,0-2-0.4-2.8-1.2l-68-68
	c-0.8-0.8-1.2-1.6-1.2-2.8v-36l-256-256c-0.8-0.8-1.2-1.2-1.6-1.6c-5.2-5.2-12.4-8.4-20-8.4s-14.4,2.8-20,8.4
	c-10.8,10.8-15.6,28.8-4.8,39.6c0,0,0,0,0.4,0.4l299.6,297.2l0.8-14c0-1.6,1.2-2.8,2.4-3.6
	C321.093,335.6,321.493,335.6,321.893,335.6z"/>
<path d="M299.893,321.6c-2.4,0-4-1.6-4-4v-44c0-2.4,1.6-4,4-4s4,1.6,4,4v44C303.893,319.6,302.293,321.6,299.893,321.6z"/>
<path d="M271.893,293.2c-2.4,0-4-1.6-4-4v-44c0-2.4,1.6-4,4-4s4,1.6,4,4v44C275.893,291.6,274.293,293.2,271.893,293.2z"/>
<path d="M243.893,265.2c-2.4,0-4-1.6-4-4v-44c0-2.4,1.6-4,4-4s4,1.6,4,4v44C247.893,263.2,245.893,265.2,243.893,265.2z"/>
<path d="M322.293,343.6L322.293,343.6c-2.4,0-4-2-4-4l1.2-30c0-2.4,2-4,4-4c2.4,0,4,2,4,4l-1.2,30
	C326.293,342,324.693,343.6,322.293,343.6z"/>
<path d="M473.093,463.2c-1.2,0-2-0.4-2.8-1.2l-65.2-65.2c-1.6-1.6-1.6-4,0-5.6s4-1.6,5.6,0l65.2,65.2c1.6,1.6,1.6,4,0,5.6
	C475.093,462.8,474.293,463.2,473.093,463.2z"/>
<g>
</g>
<g>
</g>
<g>
</g>
<g>
</g>
<g>
</g>
<g>
</g>
<g>
</g>
<g>
</g>
<g>
</g>
<g>
</g>
<g>
</g>
<g>
</g>
<g>
</g>
<g>
</g>
<g>
</g>
</svg>
