<?xml version='1.0' encoding='iso-8859-1'?>
<!DOCTYPE svg PUBLIC '-//W3C//DTD SVG 1.1//EN' 'http://www.w3.org/Graphics/SVG/1.1/DTD/svg11.dtd'>
<svg version="1.1" xmlns="http://www.w3.org/2000/svg" viewBox="0 0 263.935 263.935" xmlns:xlink="http://www.w3.org/1999/xlink" enable-background="new 0 0 263.935 263.935">
  <path d="m188.835,93.248c-6.319-10.976-13.982-18.705-18.862-22.973l17.009-40.097c7.051-0.929 12.529-7.305 12.529-15.022-2.84217e-14-8.357-6.415-15.156-14.301-15.156-7.888,0-14.305,6.799-14.305,15.155 0,3.18 0.934,6.13 2.52,8.57l-16.621,39.184-35.194-14.011c-1.115-7.186-7.002-12.691-14.095-12.691-7.888,0-14.305,6.798-14.305,15.153 0,8.355 6.417,15.152 14.305,15.152 3.448,0 6.615-1.3 9.088-3.462l36.296,14.449c-1.008,10.456-3.716,33.415-9.006,46.189-12.34,29.792-29.63,42.078-44.886,52.918-12.398,8.811-24.109,17.132-30.532,32.639-11.676,28.183 3.698,48.68 12.504,53.703 1.148,0.655 2.431,0.985 3.716,0.985 1.093,0 2.187-0.238 3.202-0.718 2.212-1.044 3.776-3.102 4.189-5.513 0.136-0.79 0.257-1.617 0.383-2.479 0.689-4.737 1.402-9.635 6.399-15.682 3.186-3.854 11.276-6.456 20.646-9.469 21.782-7.005 54.699-17.59 72.607-60.826 13.996-33.786 5.939-59.976-3.286-75.998zm-10.571,70.26c-15.252,36.821-41.917,45.396-63.342,52.286-11.61,3.734-21.637,6.958-27.616,14.194-2.808,3.398-4.75,6.664-6.123,9.708-2.275-5.955-3.152-14.324 1.149-24.71 4.771-11.52 13.859-17.977 25.364-26.152 16.067-11.417 36.063-25.627 50.054-59.405 4.72-11.395 7.541-28.744 9.069-41.188 2.947,3.324 6.143,7.499 9.017,12.491 10.972,19.057 11.788,40.177 2.428,62.776z"/>
</svg>
