<?xml version="1.0" encoding="iso-8859-1"?>
<!-- Generator: Adobe Illustrator 19.0.0, SVG Export Plug-In . SVG Version: 6.00 Build 0)  -->
<svg version="1.1" id="Layer_1" xmlns="http://www.w3.org/2000/svg" xmlns:xlink="http://www.w3.org/1999/xlink" x="0px" y="0px"
	 viewBox="0 0 512 512" style="enable-background:new 0 0 512 512;" xml:space="preserve">
<path style="fill:#F9DCA7;" d="M228.174,133.565c0-15.343,12.483-27.826,27.826-27.826l22.261-52.87L256,0h-66.783L89.043,100.174
	V512H256l22.261-175.304L256,161.391C240.657,161.391,228.174,148.909,228.174,133.565z"/>
<path style="fill:#FFCC75;" d="M422.957,100.174L322.783,0H256v105.739c15.343,0,27.826,12.483,27.826,27.826
	S271.343,161.391,256,161.391V512h166.957V100.174z"/>
<path style="fill:#FF8430;" d="M256,150.261c-9.206,0-16.696-7.49-16.696-16.696s7.49-16.696,16.696-16.696l11.13-25.043L256,66.783
	c-36.883,0-66.783,29.9-66.783,66.783s29.9,66.783,66.783,66.783l11.13-25.043L256,150.261z"/>
<path style="fill:#FF6E1D;" d="M256,66.783v50.087c9.206,0,16.696,7.49,16.696,16.696s-7.49,16.696-16.696,16.696v50.087
	c36.883,0,66.783-29.9,66.783-66.783S292.883,66.783,256,66.783z"/>
<path style="fill:#FFFFFF;" d="M256,150.261c-9.206,0-16.696-7.49-16.696-16.696s7.49-16.696,16.696-16.696
	s16.696,7.49,16.696,16.696S265.206,150.261,256,150.261z"/>
<rect x="155.826" y="261.565" style="fill:#F2484B;" width="33.391" height="189.217"/>
<g>
	<rect x="239.304" y="261.565" style="fill:#D82F30;" width="33.391" height="189.217"/>
	<rect x="322.783" y="261.565" style="fill:#D82F30;" width="33.391" height="189.217"/>
</g>
<g>
</g>
<g>
</g>
<g>
</g>
<g>
</g>
<g>
</g>
<g>
</g>
<g>
</g>
<g>
</g>
<g>
</g>
<g>
</g>
<g>
</g>
<g>
</g>
<g>
</g>
<g>
</g>
<g>
</g>
</svg>
