<?xml version="1.0" encoding="iso-8859-1"?>
<!-- Generator: Adobe Illustrator 19.0.0, SVG Export Plug-In . SVG Version: 6.00 Build 0)  -->
<svg version="1.1" id="Layer_1" xmlns="http://www.w3.org/2000/svg" xmlns:xlink="http://www.w3.org/1999/xlink" x="0px" y="0px"
	 viewBox="0 0 512 512" style="enable-background:new 0 0 512 512;" xml:space="preserve">
<rect y="36.827" style="fill:#C9E8FA;" width="512" height="438.345"/>
<rect y="36.827" style="fill:#67BFFF;" width="512" height="87.907"/>
<rect x="256" y="36.827" style="fill:#B6E0F7;" width="256" height="438.345"/>
<rect x="256" y="36.827" style="fill:#0088FF;" width="256" height="87.907"/>
<g>
	<rect x="389.663" y="66.685" style="fill:#F4F4F4;" width="22.39" height="22.39"/>
	<rect x="424.73" y="66.685" style="fill:#F4F4F4;" width="22.39" height="22.39"/>
	<rect x="459.797" y="66.685" style="fill:#F4F4F4;" width="22.39" height="22.39"/>
</g>
<path style="fill:#FFFFFF;" d="M435.826,302.219l-4.297,6.239c-0.623,0.902-15.593,22.389-44.603,43.863
	c-26.759,19.809-71.135,43.423-130.553,43.423H256c-59.228-0.102-103.648-23.643-130.501-43.401
	c-29.17-21.465-44.309-42.931-44.94-43.832l-4.384-6.29l4.384-6.29c0.63-0.902,15.77-22.367,44.94-43.832
	c26.854-19.758,71.274-43.305,130.501-43.408h0.374c59.419,0,103.795,23.621,130.553,43.43c29.01,21.473,43.98,42.961,44.603,43.862
	L435.826,302.219z"/>
<path style="fill:#D9D8DB;" d="M435.826,302.219l-4.297,6.239c-0.623,0.902-15.593,22.389-44.603,43.863
	c-26.759,19.809-71.135,43.423-130.553,43.423H256V208.688h0.374c59.419,0,103.795,23.621,130.553,43.43
	c29.01,21.473,43.98,42.961,44.603,43.862L435.826,302.219z"/>
<path style="fill:#57555C;" d="M344.201,302.234c0,48.708-39.493,88.201-88.201,88.201c-48.715,0-88.201-39.493-88.201-88.201
	c0-48.715,39.486-88.201,88.201-88.201C304.708,214.033,344.201,253.518,344.201,302.234z"/>
<path style="fill:#3C3A41;" d="M344.201,302.234c0,48.708-39.493,88.201-88.201,88.201V214.033
	C304.708,214.033,344.201,253.518,344.201,302.234z"/>
<path style="fill:#F4F4F4;" d="M282.554,302.234c0,14.662-11.891,26.553-26.554,26.553c-14.669,0-26.554-11.891-26.554-26.553
	c0-14.669,11.884-26.554,26.554-26.554C270.662,275.68,282.554,287.564,282.554,302.234z"/>
<path style="fill:#D9D8DB;" d="M282.554,302.234c0,14.662-11.891,26.553-26.554,26.553V275.68
	C270.662,275.68,282.554,287.564,282.554,302.234z"/>
<g>
</g>
<g>
</g>
<g>
</g>
<g>
</g>
<g>
</g>
<g>
</g>
<g>
</g>
<g>
</g>
<g>
</g>
<g>
</g>
<g>
</g>
<g>
</g>
<g>
</g>
<g>
</g>
<g>
</g>
</svg>
