<svg xmlns="http://www.w3.org/2000/svg" xmlns:xlink="http://www.w3.org/1999/xlink" viewBox="0 0 400 300" width="406" height="306" class="illustration"><defs><linearGradient id="linear-gradient" x1="149.44" y1="182.73" x2="127.29" y2="213.13" gradientUnits="userSpaceOnUse"><stop offset="0" stop-color="#7f47dd"></stop><stop offset="1" stop-color="#fff"></stop></linearGradient><linearGradient id="linear-gradient-2" x1="238.99" y1="197.56" x2="199.59" y2="251.64" xlink:href="#linear-gradient"></linearGradient></defs><title>101-110</title><g style="isolation: isolate;"><g id="Layer_2" data-name="Layer 2"><polygon points="62.92 206.85 202.06 287.54 304.46 228.41 166.63 147.54 62.92 206.85" fill="#9492f4"></polygon><path d="M157.41,204.17l-12.48-9.75-48.59,28.8c1.65,1.13,4.7,4,16.75,10.7C128.91,222.77,141.82,215.66,157.41,204.17Z" fill="url(#linear-gradient)" style="mix-blend-mode: multiply;"></path><path d="M217.92,199.34c-15.3,10.13-60.25,41.95-75.38,52.32,25.74,14.21,52.23,28.69,55.07,30.74l73.22-50.25Z" fill="url(#linear-gradient-2)" style="mix-blend-mode: multiply;"></path><polyline points="218.54 207.19 242.76 219.93 243.48 225.92 217.85 211.46" fill="#e27623"></polyline><path d="M217.56,197.42l-10,36,1.83,1.06a11.37,11.37,0,0,0,1.37-.84c.54-.41,12.95-37.81,12.95-37.81" fill="#e27623"></path><polyline points="240.57 190.4 247.38 211.65 246.79 254.15 245.26 255.15 243.16 253.84 241.59 211.63 235.44 190.4" fill="#e27623"></polyline><path d="M213.83,187.86s-.75,4.71.87,7.32,5.92-3.89,5.92-3.89" fill="#ffb469"></path><polyline points="236.4 162.18 235.44 179.38 239.95 181.72 240.79 163.28" fill="#ca6b00"></polyline><polyline points="264.73 174.85 267.76 198.11 270.82 232.33 268.86 233.49 266.9 232.27 262.54 198.64 259.61 174.85" fill="#e27623"></polyline><path d="M261.67,177.75c1.27.39,4-1.61,4.82-2.9,4.47-7,3.18-16.58-4.87-21-3.56-2-7.25-3.93-10.79-6-3.15-1.8-6.49-3.33-9.54-5.29a7,7,0,0,0-1.27-.69,4.34,4.34,0,0,0-4.58,1.56" fill="#ffb469"></path><path d="M262,177.45c2.15-.07,3.39-2.93,4-4.61,1.75-4.61,2.09-13.39-3.17-16a.63.63,0,0,1-.37-.5l-10.09-5.83L244.59,146c-1.36-.79-2.66-1.68-4-2.48s-2.71-1.71-4.21-.81c-1.65,1-1.88,2.86-2.13,4.6a27.89,27.89,0,0,0,.62,12.07c.82,2.62,2.89,4.4,5.19,5.74l7.25,4.2,13.44,7.75a2.86,2.86,0,0,0,.69.32A2,2,0,0,0,262,177.45Z" fill="#fcbd4c"></path><path d="M263.47,196.08l.41.24a10.09,10.09,0,0,1,3,2.27c2,2.56.07,5.48-2,7.27-5.47,4.86-13.75,8.84-21.17,7a65.71,65.71,0,0,1-18.13-8C221,202.13,215.19,198.76,214,193a8.32,8.32,0,0,1,2.2-7.17c11.64-13.49,28-.83,39.52,5.78Z" fill="#ffb469"></path><path d="M267.51,196.6c.09.09.61,3.82.24,4.93a13.9,13.9,0,0,1-3.34,4.78c-1.36,1.09-.54-6.52-.54-6.52" fill="#ffb469"></path><path d="M263.47,192.83l.41.24a10.09,10.09,0,0,1,3,2.27c2,2.56.07,5.48-2,7.27-5.47,4.86-13.75,8.84-21.17,7a65.71,65.71,0,0,1-18.13-8c-4.64-2.79-10.44-6.15-11.65-11.91a8.32,8.32,0,0,1,2.2-7.17c11.64-13.49,28-.83,39.52,5.78Z" fill="#fcbd4c"></path><polyline points="172.38 19.94 176.31 19.03 219.68 44.01 218.96 129.44 217.34 130.34" fill="#dd654a"></polyline><polygon points="172.38 19.94 171.88 104.24 217.34 130.34 217.34 45.36 172.38 19.94" fill="#f8997c"></polygon><polygon points="173.98 24.51 173.98 103.04 215.27 125.91 215.27 47.85 173.98 24.51" fill="#fdf2d6"></polygon><polyline points="187.99 45.94 187.99 57.84 180.12 54.07 180.12 44.01" fill="#f8997c"></polyline><path d="M179.54,41.14l8.45,4.8s.43,7.93-1.82,10.18l-7.69-3.8S181.13,46.44,179.54,41.14Z" fill="#fff"></path><polyline points="208.54 60.3 208.54 75.64 198.41 70.78 198.41 57.82" fill="#f8997c"></polyline><path d="M197.65,54.12l10.89,6.19s.56,10.22-2.35,13.12l-9.91-4.9S199.7,60.95,197.65,54.12Z" fill="#5fad00"></path><polyline points="187.14 61.45 187.14 73.35 179.28 69.58 179.28 59.52" fill="#f8997c"></polyline><path d="M178.69,56.65l8.45,4.8s.43,7.93-1.82,10.18l-7.69-3.8S180.28,62,178.69,56.65Z" fill="#a1c3fc"></path><polyline points="186.69 76.81 186.69 88.72 178.82 84.94 178.82 74.89" fill="#f8997c"></polyline><path d="M178.24,72l8.45,4.8s.43,7.93-1.82,10.18l-7.69-3.8S179.83,77.32,178.24,72Z" fill="#a1c3fc"></path><polygon points="192.66 76.45 209.08 85.6 209.08 92.66 192.66 83.71 192.66 76.45" fill="#a1c3fc"></polygon><path d="M137.73,165.69s.9,39.64,14.45,40.58,14.45-40.58,14.45-40.58" fill="#6de2fc"></path><path d="M137.73,165.69s.9,39.64,14.45,40.58,14.45-40.58,14.45-40.58" fill="#1779ba"></path><ellipse cx="152.18" cy="165.69" rx="14.45" ry="7.5" fill="#311e69"></ellipse><path d="M148.25,170.81a189.16,189.16,0,0,0-13.54-45.72c-.52-1.19-2.26-.16-1.74,1a187.23,187.23,0,0,1,13.34,45.24C146.51,172.62,148.45,172.08,148.25,170.81Z" fill="#311e69"></path><path d="M156.51,173.32q-1.49-28.78-5.16-57.38c-.16-1.27-2.18-1.29-2,0q3.66,28.53,5.15,57.28C155.16,173.23,155.84,173.27,156.51,173.32Z" fill="#311e69"></path><path d="M130.24,121.36a10.72,10.72,0,0,0-7.13.57c-1.62.72-5,2.77-4.33,5s4.74,1.86,6.36,1.36a9.23,9.23,0,0,0,5.59-5.19,1.13,1.13,0,0,0,.07-.24A1,1,0,0,0,130.24,121.36Z" fill="#c3ea75"></path><path d="M134,119c-.42-2.61-.6-5.65-2.4-7.74-1.35-1.56-3.77-2.51-5.67-1.34s-1.52,4-.43,5.62c1.56,2.38,4.32,3.41,6.53,5a.86.86,0,0,0,1.35-.42A1.06,1.06,0,0,0,134,119Zm-3.08-5a7.81,7.81,0,0,0-1.68-2l0-.26A5.42,5.42,0,0,1,131,114.05Z" fill="#c3ea75"></path><path d="M139.29,114.85c-3.26-1.47-3.82,4.13-3.9,6a.87.87,0,0,0,.67.93,1,1,0,0,0,1.4,0c1.1-1,2.49-1.92,2.83-3.44C140.55,117.21,140.55,115.41,139.29,114.85Z" fill="#c3ea75"></path><path d="M152.3,102.9c-.69-2.25-3-4.29-5.42-3.22s-2,4.45-1.58,6.64,1.73,6.11,4.25,6.49a4.71,4.71,0,0,0,2.08-.58C152.66,109.38,153.22,105.87,152.3,102.9Zm-2.16,6v-.05a9.72,9.72,0,0,0,.07-1.1,6.59,6.59,0,0,1,0,1.61C150.22,109.24,150.18,109.09,150.14,108.93Z" fill="#c3ea75"></path><path d="M159.94,110.62c-2.43.66-4.91,1.73-6,4.19a1.06,1.06,0,0,0,.17,1.13c.09,2.32,4.8,1.15,6.12.89,2.13-.41,4.69-1.47,4.6-4C164.78,110,162,110.08,159.94,110.62Zm2.83,2.92a1.17,1.17,0,0,0-.13-.46,3.23,3.23,0,0,0,.26-.42A.77.77,0,0,1,162.77,113.55Z" fill="#c3ea75"></path><path d="M147.23,113.4c-.93-1.27-4.51-5.21-6.07-2.87a2.7,2.7,0,0,0,.58,3.27,7.39,7.39,0,0,0,3.83,1.68,1,1,0,0,0,1.19-.7A.87.87,0,0,0,147.23,113.4Zm-4.15-1.14h0l1,.69-.17-.07A2.36,2.36,0,0,1,143.08,112.26Z" fill="#c3ea75"></path><path d="M247,94.07c1.7,13.41,11,23.51,20.84,22.55s16.38-12.61,14.67-26-11-23.51-20.84-22.55S245.26,80.66,247,94.07Z" fill="#56403d"></path><path d="M244.77,94.72c1.7,13.41,11,23.51,20.84,22.55s16.38-12.61,14.67-26-11-23.51-20.84-22.55S243.07,81.31,244.77,94.72Z" fill="#ffdac0"></path><path d="M247,94.51c1.49,11.75,9.67,20.6,18.26,19.76s14.35-11,12.86-22.8-9.67-20.6-18.26-19.76S245.48,82.76,247,94.51Z" fill="#1779ba"></path><path d="M257.67,89.93,261,92.84V80.25c0-2.11,3.73-2.11,3.73,0V96.87a1.51,1.51,0,0,1-1.13,1.39,1.88,1.88,0,0,1-2-.26l0,0,0,0-6.5-5.7C253.33,90.76,256,88.44,257.67,89.93Z" fill="#56403d"></path><path d="M194.27,260.79l-3.92-3s.41-3.88,2.06-4.35S194.27,260.79,194.27,260.79Z" fill="#196132"></path><path d="M191.59,236.65s-6.27,16.4-7.1,17.22-10.39,7.14-11.4,8.65,7.76,2.16,11.2,2,6.81-1.2,7.17-2.41.28-7.75,1.46-7.37,1.35,6.06,1.35,6.06l3.22-1.14,5-22.93" fill="#196132"></path><path d="M209.72,268.21l-3.92-3s.41-3.88,2.06-4.35S209.72,268.21,209.72,268.21Z" fill="#196132"></path><path d="M207,244.07s-6.27,16.4-7.1,17.22-10.39,7.14-11.4,8.65,7.76,2.16,11.2,2,6.81-1.2,7.17-2.41.28-7.75,1.46-7.37,1.35,6.06,1.35,6.06l3.22-1.14,5-22.93" fill="#196132"></path><path d="M249.43,168.94c1.55,1.49-8,18.21-10.4,28.19s-26.66,14.14-26.66,14.14l-9.18,40.82a87.81,87.81,0,0,1-17.39-3.61s9.79-47.59,12.61-52.68,39.87-23.34,39.87-23.34" fill="#fff0d7"></path><path d="M255.39,172.46c1.55,1.49,6,13.17,0,27.52-4,9.47-25.61,16.14-25.61,16.14l-12.71,39s-6.64,2.94-15.34-.39c0,0,6.45-44.83,9.28-49.92s31-23,31-23" fill="#fff0d7"></path><path d="M257,143.34a27.62,27.62,0,0,0-13.51-2.78,11.09,11.09,0,0,0-6.29,2.26c-2.33,1.91-3.42,5-4.78,7.55a118,118,0,0,1-6.77,10.84c-2.22,3.31-4.25,6.79-6.94,9.75l6.72,5.74,11.44-11.77,15.37,9.2-14.59,6.33c-1.32,2.1,8.57,9.36,8.57,9.36s15.94-.63,20.22-16.37C272.55,151.14,257.06,143.36,257,143.34Z" fill="#ff9a22"></path><line x1="201.73" y1="171.07" x2="203.18" y2="169.66" fill="#fff7f0"></line><polyline points="229.78 180.87 232.01 197.21 226.96 199.98 222.99 185.05" fill="#ffe8bc"></polyline><path d="M236.81,159.15s-1.41,14.35-.67,16,15.48,9.17,15.48,9.17l10.26-11.18Z" fill="#ff9a22"></path><path d="M243.72,134.36s-2.35,6-1.19,8,6.71.28,6.71.28" fill="#dd654a"></path><path d="M243.07,131.4s.51,11.87,5.46,12.87,7.18-5.17,7.18-5.17.53-8.06-1.15-9.65S245.45,127.89,243.07,131.4Z" fill="#fdba45"></path><path d="M241.11,130.19s3.55,4.45,5.56,5.52,4.17.27,4.93,1.83-1.11,11.24,1.22,12.89,6.38-3.75,8.45-1.33,1.3,7.12,4.36,8,6.34-4,3.26-7.56-3.46-5.35-1.89-6.66c2.35-2-.57-8.53-3.51-9.63s-4.09-7.56-9.33-8.87S242,126.45,241.11,130.19Z" fill="#dd654a"></path><path d="M238.28,154.67q-.72,10-1,19.93c0,.76-1.2.67-1.17-.08q.3-10,1-19.93A.59.59,0,0,1,238.28,154.67Z" fill="#f26250"></path><path d="M237.93,180.07a26.78,26.78,0,0,0,16.38-17.54c.22-.73,1.32-.33,1.11.39a27.87,27.87,0,0,1-17,18.2C237.75,181.39,237.22,180.34,237.93,180.07Z" fill="#f26250"></path><path d="M245.1,125.84s8.62,2.73,8.52,10.58c0,0,1.71-4.74,0-8.54a6.67,6.67,0,0,0-5.79-3.8S245.26,124.45,245.1,125.84Z" fill="#6b2215"></path><path d="M234.71,186.44a1.13,1.13,0,0,1-.34-.08,8.84,8.84,0,0,0-.57,1.14c-.24.59-1.2.33-1-.27l.06-.13a139.38,139.38,0,0,1-11.22,9.15c-4.77,3.47-9.34,6.43-11.23,12.32A87.34,87.34,0,0,0,208.22,219L206,230.75l-4.49,23.54c-.12.63.84.9,1,.27l4.3-22.55c1.37-7.18,2.39-14.53,4.21-21.61a16.66,16.66,0,0,1,4.9-8.54c2.61-2.37,5.69-4.23,8.5-6.35,3.77-2.86,7.38-5.91,10.85-9.13A1.26,1.26,0,0,1,234.71,186.44Z" fill="#196132"></path><polyline points="224.54 205.92 245.1 193.94 213.53 175.79 197.29 189.35" fill="#1779ba"></polyline><polyline points="224.54 205.92 245.1 193.94 213.53 175.79 197.29 189.35" opacity="0.38"></polyline><path d="M219.21,182.29s5.4,23.93,5.32,23.64-26.63-14.56-26.81-15.07-7-24.79-7-24.79Z" fill="#1779ba"></path><path d="M238.65,182.69s-7.46,4.31-7.46,4.31-5.21,4.14-5.4,4.87-2.46,5.49-2,6.44,2-.61,2-.61-.63,1.67,0,1.57,1.62.14,2.36-1c0,0,.25,1.3,1.07,1s2.26-2.72,2.26-2.72,0,1.31.87,1.15,2.67-4.93,2.67-4.93a10,10,0,0,0,4.81-2.88l4.16-2.15Z" fill="#fdba45"></path><path d="M218.86,171.07s-6.73,7.18-6.57,7.28l6,3.37,5.39-6.27Z" fill="#fdba45"></path></g></g></svg>